<?xml version="1.0" standalone="no"?><!DOCTYPE svg PUBLIC "-//W3C//DTD SVG 1.1//EN" "http://www.w3.org/Graphics/SVG/1.1/DTD/svg11.dtd"><svg t="1751422179634" class="icon" viewBox="0 0 1024 1024" version="1.1" xmlns="http://www.w3.org/2000/svg" p-id="7691" xmlns:xlink="http://www.w3.org/1999/xlink" width="200" height="200"><path d="M438.272 102.4a40.96 40.96 0 0 1 40.96 40.96v155.12064h75.40736a41.61024 41.61024 0 0 1 0.65024-0.84992l121.05216-154.5216a40.96 40.96 0 0 1 57.4208-7.05536l0.0512 0.04096a40.81152 40.81152 0 0 1 7.10656 57.27744l-0.06656 0.08704-82.27328 105.02144H774.144c81.43872 0 147.456 66.0224 147.456 147.456V722.944c0 81.43872-66.01728 147.456-147.456 147.456H249.856C168.41728 870.4 102.4 804.38272 102.4 722.944V445.94176c0-81.43872 66.01728-147.456 147.456-147.456h147.456V143.36a40.96 40.96 0 0 1 40.96-40.96zM290.92352 666.14272h-0.21504a40.85248 40.85248 0 0 0 0 81.70496h0.21504a40.85248 40.85248 0 0 0 0-81.70496z m450.56 0H413.5936a40.85248 40.85248 0 0 0 0 81.70496h327.89504a40.85248 40.85248 0 0 0 0-81.70496z m-450.56-122.55232h-0.21504a40.85248 40.85248 0 0 0 0 81.70496h0.21504a40.85248 40.85248 0 0 0 0-81.70496z m450.56 0H413.5936a40.85248 40.85248 0 0 0 0 81.70496h327.89504a40.85248 40.85248 0 0 0 0-81.70496z m-450.56-122.55232h-0.21504a40.85248 40.85248 0 0 0 0 81.69984h0.21504a40.85248 40.85248 0 0 0 0-81.69984z m450.56 0H413.5936a40.85248 40.85248 0 0 0 0 81.69984h327.89504a40.85248 40.85248 0 0 0 0-81.69984z" fill="#762de6" p-id="7692"></path></svg>